# xmcd
#
# Track frame offsets:
#	187
#	11310
#	22957
#	35017
#	46110
#	61292
#	73040
#	83057
#	97847
#	110917
#	120712
#	130015
#	141720
#	153435
#	165820
#	175560
#	188905
#	200255
#	212267
#	224495
#	236150
#	248297
#	258925
#	269040
#	280130
#	291197
#	301702
#	309982
#
# Disc length: 4289
#
# Revision: 1
# Processed by: cddbd v1.5.1PL0 Copyright (c) Steve Scherf et al.
# Submitted via: EasyCDDAExtractor 5.0.5.1
# Normalized: r0:DSETVAR1
#
DISCID=7f10bf1c
DTITLE=Various Artist - Atlantic Rhythm and Blues 1947-1974 Vol. 3 (1955-1958)
DYEAR=1985
DGENRE=R&B
TTITLE0=The Drifters - Ruby Baby
TTITLE1=The Cookies - In Paradise
TTITLE2=Joe Turner - The Chicken And The Hawk
TTITLE3=The Clovers - Devil Or Angel
TTITLE4=Ray Charles - Drown In My Own Tears
TTITLE5=Ray Charles - Hallelujah, I Love Her So
TTITLE6=LaVern Baker - Jim Dandy
TTITLE7=The Coasters - Down In Mexico
TTITLE8=Joe Turner - Corrine Corinna
TTITLE9=Clyde McPhatter - Treasure Of Love
TTITLE10=The Clovers - Love, Love, Love
TTITLE11=Chuck Willis - It's Too Late
TTITLE12=Ray Charles - Lonely Avenue
TTITLE13=Ivory Joe Hunter - Since I Met You Baby
TTITLE14=Ruth Brown - Lucky Lips
TTITLE15=Clyde McPhatter - Without Love (There Is Nothing)
TTITLE16=The Drifters - Fools Fall In Love
TTITLE17=Joe Turner - Midnight Special Train
TTITLE18=Ivory Joe Hunter - Empty Arms
TTITLE19=Chuck Willis - C.C. Rider
TTITLE20=The Coasters - Searchin'
TTITLE21=The Coasters - Young Blood
TTITLE22=The Bobbettes - Mr. Lee
TTITLE23=Chuck Willis - Betty And Dupree
TTITLE24=Chuck Willis - What Am I Livin' For?
TTITLE25=Chuck Willis - Hang Up My Rock And Roll Shoes
TTITLE26=The Coasters - Yakety Yak
TTITLE27=Clyde McPhatter - A Lover's Question
EXTD=
EXTT0=
EXTT1=
EXTT2=
EXTT3=
EXTT4=
EXTT5=
EXTT6=
EXTT7=
EXTT8=
EXTT9=
EXTT10=
EXTT11=
EXTT12=
EXTT13=
EXTT14=
EXTT15=
EXTT16=
EXTT17=
EXTT18=
EXTT19=
EXTT20=
EXTT21=
EXTT22=
EXTT23=
EXTT24=
EXTT25=
EXTT26=
EXTT27=
PLAYORDER=
